<svg xmlns="http://www.w3.org/2000/svg" viewBox="0 0 100 100" width="100" height="100">
  <circle cx="50" cy="50" r="48" fill="#f8fafc" stroke="#ef4444" stroke-width="4"/>
  <!-- Beanie Pom-pom -->
  <circle cx="50" cy="18" r="8" fill="#ef4444"/>
  <!-- Beanie Cap -->
  <path d="M 30 35 Q 50 18 70 35 Z" fill="#ef4444"/>
  <path d="M 34 32 Q 50 20 66 32" stroke="#ffffff" stroke-width="4" fill="none"/>
  <!-- Face -->
  <circle cx="50" cy="55" r="22" fill="#fed7aa"/>
  <!-- Glasses -->
  <circle cx="42" cy="52" r="7" fill="none" stroke="#0f172a" stroke-width="2.5"/>
  <circle cx="58" cy="52" r="7" fill="none" stroke="#0f172a" stroke-width="2.5"/>
  <line x1="49" y1="52" x2="51" y2="52" stroke="#0f172a" stroke-width="2.5"/>
  <!-- Eyes -->
  <circle cx="42" cy="52" r="2" fill="#0f172a"/>
  <circle cx="58" cy="52" r="2" fill="#0f172a"/>
  <!-- Smile -->
  <path d="M 44 65 Q 50 71 56 65" fill="none" stroke="#9a3412" stroke-width="2" stroke-linecap="round"/>
  <!-- Shirt Collar -->
  <path d="M 35 75 Q 50 82 65 75 L 70 95 L 30 95 Z" fill="#ef4444"/>
  <path d="M 32 84 Q 50 91 68 84" stroke="#ffffff" stroke-width="4" fill="none"/>
</svg>
